<?xml version="1.0" encoding="UTF-8" standalone="no"?>
<!-- Created with Inkscape (http://www.inkscape.org/) -->

<svg
   xmlns:dc="http://purl.org/dc/elements/1.1/"
   xmlns:cc="http://creativecommons.org/ns#"
   xmlns:rdf="http://www.w3.org/1999/02/22-rdf-syntax-ns#"
   xmlns:svg="http://www.w3.org/2000/svg"
   xmlns="http://www.w3.org/2000/svg"
   xmlns:sodipodi="http://sodipodi.sourceforge.net/DTD/sodipodi-0.dtd"
   xmlns:inkscape="http://www.inkscape.org/namespaces/inkscape"
   width="1920"
   height="1080"
   viewBox="0 0 507.99999 285.75001"
   version="1.1"
   id="svg8"
   inkscape:version="0.92.3 (2405546, 2018-03-11)"
   sodipodi:docname="Background.svg"
   inkscape:export-filename="C:\Users\mattm\Desktop\School\10th Grade\Game Dev Club\Unity Project\Complete\Practice Game\Assets\Art\Background.png"
   inkscape:export-xdpi="96"
   inkscape:export-ydpi="96">
  <defs
     id="defs2" />
  <sodipodi:namedview
     id="base"
     pagecolor="#ffffff"
     bordercolor="#666666"
     borderopacity="1.0"
     inkscape:pageopacity="0.0"
     inkscape:pageshadow="2"
     inkscape:zoom="0.49497475"
     inkscape:cx="858.39852"
     inkscape:cy="521.28927"
     inkscape:document-units="px"
     inkscape:current-layer="layer1"
     showgrid="false"
     units="px"
     inkscape:pagecheckerboard="true"
     inkscape:window-width="1920"
     inkscape:window-height="1017"
     inkscape:window-x="-8"
     inkscape:window-y="-8"
     inkscape:window-maximized="1" />
  <metadata
     id="metadata5">
    <rdf:RDF>
      <cc:Work
         rdf:about="">
        <dc:format>image/svg+xml</dc:format>
        <dc:type
           rdf:resource="http://purl.org/dc/dcmitype/StillImage" />
        <dc:title />
      </cc:Work>
    </rdf:RDF>
  </metadata>
  <g
     inkscape:label="Layer 1"
     inkscape:groupmode="layer"
     id="layer1"
     transform="translate(0,-11.249983)">
    <rect
       style="opacity:1;fill:#4db122;fill-opacity:1;fill-rule:nonzero;stroke:none;stroke-width:0.79316235;stroke-linecap:round;stroke-linejoin:round;stroke-miterlimit:4;stroke-dasharray:none;stroke-dashoffset:0;stroke-opacity:1"
       id="rect4518"
       width="508"
       height="285.75"
       x="-7.1054274e-015"
       y="11.249985" />
    <path
       sodipodi:nodetypes="cccccccsc"
       inkscape:connector-curvature="0"
       id="path4553"
       d="m 76.877569,228.08751 c -0.47406,-6.21682 0.24687,-9.15582 5.62313,-12.51599 -5.59823,0.6126 -7.04701,1.99676 -8.85794,4.29293 -0.25247,-1.26233 -0.38567,-4.75443 3.06258,-12.35048 -3.88501,2.66703 -6.38143,5.6527 -7.48178,9.24769 -1.52074,-3.53285 -3.31011,-5.27648 -7.1997,-7.38908 1.66317,3.91268 4.02748,8.78259 3.95712,11.48286 -2.64806,-3.59069 -7.153466,-3.43586 -6.910543,-3.16563 4.046303,4.50097 4.928363,7.06282 4.988823,10.3977"
       style="fill:#70f267;fill-opacity:1;stroke:#000000;stroke-width:1.0583334;stroke-linecap:butt;stroke-linejoin:round;stroke-miterlimit:4;stroke-dasharray:none;stroke-opacity:1" />
    <path
       sodipodi:nodetypes="cccccccsc"
       inkscape:connector-curvature="0"
       id="path4541"
       d="m 62.918409,236.91011 c -0.47406,-6.21682 0.24687,-9.15582 5.62313,-12.51599 -5.59823,0.6126 -7.04702,1.99676 -8.857939,4.29293 -0.252468,-1.26233 -0.385674,-4.75443 3.062579,-12.35048 -3.885008,2.66703 -6.381427,5.6527 -7.48178,9.24769 -1.520743,-3.53285 -3.310114,-5.27648 -7.1997,-7.38908 1.663167,3.91268 4.027477,8.78259 3.957123,11.48286 -2.648065,-3.59069 -7.15347,-3.43586 -6.910547,-3.16563 4.046307,4.50097 4.92836,7.06282 4.988824,10.3977"
       style="fill:#70f267;fill-opacity:1;stroke:#000000;stroke-width:1.0583334;stroke-linecap:butt;stroke-linejoin:round;stroke-miterlimit:4;stroke-dasharray:none;stroke-opacity:1" />
    <path
       style="fill:#70f267;fill-opacity:1;stroke:#000000;stroke-width:1.0583334;stroke-linecap:butt;stroke-linejoin:round;stroke-miterlimit:4;stroke-dasharray:none;stroke-opacity:1"
       d="m 75.402499,243.08384 c -0.47406,-6.21682 0.24687,-9.15582 5.62312,-12.51599 -5.59823,0.6126 -7.04701,1.99676 -8.85793,4.29293 -0.25247,-1.26233 -0.38567,-4.75443 3.06257,-12.35048 -3.885,2.66703 -6.38142,5.6527 -7.48177,9.24769 -1.52074,-3.53285 -3.31012,-5.27648 -7.199702,-7.38908 1.663172,3.91268 4.027482,8.78259 3.957122,11.48286 -2.64806,-3.59069 -7.153469,-3.43586 -6.910546,-3.16563 4.046306,4.50097 4.928356,7.06282 4.988826,10.3977"
       id="path4551"
       inkscape:connector-curvature="0"
       sodipodi:nodetypes="cccccccsc" />
    <path
       style="fill:#70f267;fill-opacity:1;stroke:#000000;stroke-width:1.0583334;stroke-linecap:butt;stroke-linejoin:round;stroke-miterlimit:4;stroke-dasharray:none;stroke-opacity:1"
       d="m 136.21144,171.96091 c -0.47406,-6.21682 0.24686,-9.15582 5.62312,-12.51599 -5.59823,0.6126 -7.04701,1.99676 -8.85793,4.29293 -0.25247,-1.26233 -0.38568,-4.75443 3.06257,-12.35048 -3.885,2.66703 -6.38142,5.6527 -7.48177,9.24769 -1.52075,-3.53285 -3.31012,-5.27648 -7.1997,-7.38908 1.66316,3.91268 4.02747,8.78259 3.95712,11.48286 -2.64807,-3.59069 -7.15347,-3.43586 -6.91055,-3.16563 4.04631,4.50097 4.92836,7.06282 4.98883,10.3977"
       id="path4555"
       inkscape:connector-curvature="0"
       sodipodi:nodetypes="cccccccsc" />
    <path
       style="fill:#70f267;fill-opacity:1;stroke:#000000;stroke-width:1.0583334;stroke-linecap:butt;stroke-linejoin:round;stroke-miterlimit:4;stroke-dasharray:none;stroke-opacity:1"
       d="m 123.83979,180.78351 c -0.47407,-6.21682 0.24686,-9.15582 5.62312,-12.51599 -5.59823,0.6126 -7.04701,1.99676 -8.85793,4.29293 -0.25247,-1.26233 -0.38568,-4.75443 3.06257,-12.35048 -3.885,2.66703 -6.38142,5.6527 -7.48177,9.24769 -1.52075,-3.53285 -3.31012,-5.27648 -7.1997,-7.38908 1.66316,3.91268 4.02747,8.78259 3.95712,11.48286 -2.64807,-3.59069 -7.15347,-3.43586 -6.91055,-3.16563 4.04631,4.50097 4.92836,7.06282 4.98883,10.3977"
       id="path4557"
       inkscape:connector-curvature="0"
       sodipodi:nodetypes="cccccccsc" />
    <path
       style="fill:#70f267;fill-opacity:1;stroke:#000000;stroke-width:1.0583334;stroke-linecap:butt;stroke-linejoin:round;stroke-miterlimit:4;stroke-dasharray:none;stroke-opacity:1"
       d="m 152.98408,174.45566 c -0.47406,-6.21682 0.24686,-9.15582 5.62312,-12.51599 -5.59823,0.6126 -7.04701,1.99676 -8.85793,4.29293 -0.25247,-1.26233 -0.38568,-4.75443 3.06257,-12.35048 -3.885,2.66703 -6.38142,5.6527 -7.48177,9.24769 -1.52075,-3.53285 -3.31012,-5.27648 -7.1997,-7.38908 1.66316,3.91268 4.02747,8.78259 3.95712,11.48286 -2.64807,-3.59069 -7.15347,-3.43586 -6.91055,-3.16563 4.04631,4.50097 4.92836,7.06282 4.98883,10.3977"
       id="path4591"
       inkscape:connector-curvature="0"
       sodipodi:nodetypes="cccccccsc" />
    <path
       sodipodi:nodetypes="cccccccsc"
       inkscape:connector-curvature="0"
       id="path4561"
       d="m 335.64283,229.68576 c -0.47406,-6.21682 0.24686,-9.15582 5.62312,-12.51599 -5.59823,0.6126 -7.04701,1.99676 -8.85793,4.29293 -0.25247,-1.26233 -0.38568,-4.75443 3.06257,-12.35048 -3.885,2.66703 -6.38142,5.6527 -7.48177,9.24769 -1.52075,-3.53285 -3.31012,-5.27648 -7.1997,-7.38908 1.66316,3.91268 4.02747,8.78259 3.95712,11.48286 -2.64807,-3.59069 -7.15347,-3.43586 -6.91055,-3.16563 4.04631,4.50097 4.92836,7.06282 4.98883,10.3977"
       style="fill:#70f267;fill-opacity:1;stroke:#000000;stroke-width:1.0583334;stroke-linecap:butt;stroke-linejoin:round;stroke-miterlimit:4;stroke-dasharray:none;stroke-opacity:1" />
    <path
       sodipodi:nodetypes="cccccccsc"
       inkscape:connector-curvature="0"
       id="path4563"
       d="m 346.55466,238.50836 c -0.47407,-6.21682 0.24686,-9.15582 5.62312,-12.51599 -5.59823,0.6126 -7.04701,1.99676 -8.85793,4.29293 -0.25247,-1.26233 -0.38568,-4.75443 3.06257,-12.35048 -3.885,2.66703 -6.38142,5.6527 -7.48177,9.24769 -1.52075,-3.53285 -3.31012,-5.27648 -7.1997,-7.38908 1.66316,3.91268 4.02747,8.78259 3.95712,11.48286 -2.64807,-3.59069 -7.15347,-3.43586 -6.91055,-3.16563 4.04631,4.50097 4.92836,7.06282 4.98883,10.3977"
       style="fill:#70f267;fill-opacity:1;stroke:#000000;stroke-width:1.0583334;stroke-linecap:butt;stroke-linejoin:round;stroke-miterlimit:4;stroke-dasharray:none;stroke-opacity:1" />
    <path
       style="fill:#70f267;fill-opacity:1;stroke:#000000;stroke-width:1.0583334;stroke-linecap:butt;stroke-linejoin:round;stroke-miterlimit:4;stroke-dasharray:none;stroke-opacity:1"
       d="m 334.16775,244.68209 c -0.47406,-6.21682 0.24687,-9.15582 5.62313,-12.51599 -5.59823,0.6126 -7.04701,1.99676 -8.85794,4.29293 -0.25246,-1.26233 -0.38567,-4.75443 3.06258,-12.35048 -3.885,2.66703 -6.38142,5.6527 -7.48178,9.24769 -1.52074,-3.53285 -3.31011,-5.27648 -7.1997,-7.38908 1.66317,3.91268 4.02748,8.78259 3.95713,11.48286 -2.64807,-3.59069 -7.15347,-3.43586 -6.91055,-3.16563 4.04631,4.50097 4.92836,7.06282 4.98882,10.3977"
       id="path4565"
       inkscape:connector-curvature="0"
       sodipodi:nodetypes="cccccccsc" />
    <path
       style="fill:#70f267;fill-opacity:1;stroke:#000000;stroke-width:1.0583334;stroke-linecap:butt;stroke-linejoin:round;stroke-miterlimit:4;stroke-dasharray:none;stroke-opacity:1"
       d="m 436.67072,183.18086 c -0.47406,-6.21682 0.24686,-9.15582 5.62312,-12.51599 -5.59823,0.6126 -7.04701,1.99676 -8.85793,4.29293 -0.25247,-1.26233 -0.38568,-4.75443 3.06257,-12.35048 -3.885,2.66703 -6.38142,5.6527 -7.48177,9.24769 -1.52075,-3.53285 -3.31012,-5.27648 -7.1997,-7.38908 1.66316,3.91268 4.02747,8.78259 3.95712,11.48286 -2.64807,-3.59069 -7.15347,-3.43586 -6.91055,-3.16563 4.04631,4.50097 4.92836,7.06282 4.98883,10.3977"
       id="path4567"
       inkscape:connector-curvature="0"
       sodipodi:nodetypes="cccccccsc" />
    <path
       style="fill:#70f267;fill-opacity:1;stroke:#000000;stroke-width:1.0583334;stroke-linecap:butt;stroke-linejoin:round;stroke-miterlimit:4;stroke-dasharray:none;stroke-opacity:1"
       d="m 422.71156,192.00346 c -0.47407,-6.21682 0.24686,-9.15582 5.62312,-12.51599 -5.59823,0.6126 -7.04701,1.99676 -8.85793,4.29293 -0.25247,-1.26233 -0.38568,-4.75443 3.06257,-12.35048 -3.885,2.66703 -6.38142,5.6527 -7.48177,9.24769 -1.52075,-3.53285 -3.31012,-5.27648 -7.1997,-7.38908 1.66316,3.91268 4.02747,8.78259 3.95712,11.48286 -2.64807,-3.59069 -7.15347,-3.43586 -6.91055,-3.16563 4.04631,4.50097 4.92836,7.06282 4.98883,10.3977"
       id="path4569"
       inkscape:connector-curvature="0"
       sodipodi:nodetypes="cccccccsc" />
    <path
       sodipodi:nodetypes="cccccccsc"
       inkscape:connector-curvature="0"
       id="path4571"
       d="m 435.19564,198.17719 c -0.47406,-6.21682 0.24687,-9.15582 5.62313,-12.51599 -5.59823,0.6126 -7.04701,1.99676 -8.85794,4.29293 -0.25246,-1.26233 -0.38567,-4.75443 3.06258,-12.35048 -3.885,2.66703 -6.38142,5.6527 -7.48178,9.24769 -1.52074,-3.53285 -3.31011,-5.27648 -7.1997,-7.38908 1.66317,3.91268 4.02748,8.78259 3.95713,11.48286 -2.64807,-3.59069 -7.15347,-3.43586 -6.91055,-3.16563 4.04631,4.50097 4.92836,7.06282 4.98882,10.3977"
       style="fill:#70f267;fill-opacity:1;stroke:#000000;stroke-width:1.0583334;stroke-linecap:butt;stroke-linejoin:round;stroke-miterlimit:4;stroke-dasharray:none;stroke-opacity:1" />
    <path
       sodipodi:nodetypes="cccccccsc"
       inkscape:connector-curvature="0"
       id="path4573"
       d="m 192.87259,116.90338 c -0.47406,-6.21682 0.24686,-9.15582 5.62312,-12.51599 -5.59823,0.6126 -7.04701,1.99676 -8.85793,4.29293 -0.25247,-1.26233 -0.38568,-4.75442 3.06257,-12.350471 -3.885,2.66703 -6.38142,5.652701 -7.48177,9.247681 -1.52075,-3.53284 -3.31012,-5.27647 -7.1997,-7.389071 1.66316,3.912681 4.02747,8.782581 3.95712,11.482851 -2.64807,-3.59069 -7.15347,-3.43586 -6.91055,-3.16563 4.04631,4.50097 4.92836,7.06282 4.98883,10.3977"
       style="fill:#70f267;fill-opacity:1;stroke:#000000;stroke-width:1.0583334;stroke-linecap:butt;stroke-linejoin:round;stroke-miterlimit:4;stroke-dasharray:none;stroke-opacity:1" />
    <path
       sodipodi:nodetypes="cccccccsc"
       inkscape:connector-curvature="0"
       id="path4575"
       d="m 27.15265,50.885147 c -0.47407,-6.21682 0.24686,-9.155822 5.623119,-12.515992 -5.598229,0.6126 -7.047009,1.99676 -8.857929,4.29293 -0.25247,-1.26233 -0.38568,-4.75443 3.06257,-12.35048 -3.885,2.66703 -6.38142,5.6527 -7.48177,9.24769 -1.52075,-3.53285 -3.31012,-5.27648 -7.1997,-7.38908 1.66316,3.91268 4.02747,8.78259 3.95712,11.48286 -2.64807,-3.59069 -7.15347,-3.43586 -6.91055,-3.16563 4.04631,4.500972 4.92836,7.062822 4.98883,10.397702"
       style="fill:#70f267;fill-opacity:1;stroke:#000000;stroke-width:1.0583334;stroke-linecap:butt;stroke-linejoin:round;stroke-miterlimit:4;stroke-dasharray:none;stroke-opacity:1" />
    <path
       style="fill:#70f267;fill-opacity:1;stroke:#000000;stroke-width:1.0583334;stroke-linecap:butt;stroke-linejoin:round;stroke-miterlimit:4;stroke-dasharray:none;stroke-opacity:1"
       d="m 95.74854,99.314833 c -0.47406,-6.21682 0.24687,-9.15582 5.62314,-12.51599 -5.59824,0.6126 -7.04702,1.99676 -8.85795,4.29293 -0.25246,-1.26233 -0.38567,-4.75443 3.06258,-12.35048 -3.885,2.66703 -6.38141,5.6527 -7.48177,9.24769 -1.52074,-3.53285 -3.31011,-5.27648 -7.1997,-7.38908 1.66317,3.91268 4.02748,8.78259 3.95713,11.48286 -2.64807,-3.59069 -7.15347,-3.43586 -6.91055,-3.16563 4.04631,4.50097 4.92836,7.06282 4.98882,10.3977"
       id="path4577"
       inkscape:connector-curvature="0"
       sodipodi:nodetypes="cccccccsc" />
    <path
       style="fill:#70f267;fill-opacity:1;stroke:#000000;stroke-width:1.0583334;stroke-linecap:butt;stroke-linejoin:round;stroke-miterlimit:4;stroke-dasharray:none;stroke-opacity:1"
       d="m 304.05671,68.260331 c -0.47406,-6.21682 0.24686,-9.15582 5.62312,-12.51599 -5.59823,0.6126 -7.04701,1.99676 -8.85793,4.29293 -0.25247,-1.26233 -0.38568,-4.75443 3.06257,-12.35048 -3.885,2.66703 -6.38142,5.6527 -7.48177,9.24769 -1.52075,-3.53285 -3.31012,-5.27648 -7.1997,-7.38908 1.66316,3.91268 4.02747,8.78259 3.95712,11.48286 -2.64807,-3.59069 -7.15347,-3.43586 -6.91055,-3.16563 4.04631,4.50097 4.92836,7.06282 4.98883,10.3977"
       id="path4579"
       inkscape:connector-curvature="0"
       sodipodi:nodetypes="cccccccsc" />
    <path
       style="fill:#70f267;fill-opacity:1;stroke:#000000;stroke-width:1.0583334;stroke-linecap:butt;stroke-linejoin:round;stroke-miterlimit:4;stroke-dasharray:none;stroke-opacity:1"
       d="m 290.09755,77.082935 c -0.47407,-6.21682 0.24686,-9.155824 5.62312,-12.515994 -5.59823,0.6126 -7.04701,1.99676 -8.85793,4.29293 -0.25247,-1.26233 -0.38568,-4.75443 3.06257,-12.35048 -3.885,2.66703 -6.38142,5.6527 -7.48177,9.24769 -1.52075,-3.53285 -3.31012,-5.27648 -7.1997,-7.38908 1.66316,3.91268 4.02747,8.78259 3.95712,11.482864 -2.64807,-3.590694 -7.15347,-3.435864 -6.91055,-3.165634 4.04631,4.500974 4.92836,7.062824 4.98883,10.397704"
       id="path4581"
       inkscape:connector-curvature="0"
       sodipodi:nodetypes="cccccccsc" />
    <path
       sodipodi:nodetypes="cccccccsc"
       inkscape:connector-curvature="0"
       id="path4583"
       d="m 302.58163,83.256665 c -0.47406,-6.21682 0.24687,-9.15582 5.62313,-12.51599 -5.59823,0.6126 -7.04701,1.99676 -8.85794,4.29293 -0.25246,-1.26233 -0.38567,-4.75443 3.06258,-12.350484 -3.885,2.66703 -6.38142,5.6527 -7.48178,9.247694 -1.52074,-3.532854 -3.31011,-5.276484 -7.1997,-7.389084 1.66317,3.91268 4.02748,8.782594 3.95713,11.482864 -2.64807,-3.59069 -7.15347,-3.43586 -6.91055,-3.16563 4.04631,4.50097 4.92836,7.06282 4.98882,10.3977"
       style="fill:#70f267;fill-opacity:1;stroke:#000000;stroke-width:1.0583334;stroke-linecap:butt;stroke-linejoin:round;stroke-miterlimit:4;stroke-dasharray:none;stroke-opacity:1" />
    <path
       sodipodi:nodetypes="cccccccsc"
       inkscape:connector-curvature="0"
       id="path4585"
       d="m 469.27759,86.979943 c -0.47406,-6.21682 0.24686,-9.15582 5.62312,-12.51599 -5.59823,0.6126 -7.04701,1.99676 -8.85793,4.29293 -0.25247,-1.26233 -0.38568,-4.75443 3.06257,-12.35048 -3.885,2.66703 -6.38142,5.6527 -7.48177,9.24769 -1.52075,-3.53285 -3.31012,-5.27648 -7.1997,-7.38908 1.66316,3.91268 4.02747,8.78259 3.95712,11.48286 -2.64807,-3.59069 -7.15347,-3.43586 -6.91055,-3.16563 4.04631,4.50097 4.92836,7.06282 4.98883,10.3977"
       style="fill:#70f267;fill-opacity:1;stroke:#000000;stroke-width:1.0583334;stroke-linecap:butt;stroke-linejoin:round;stroke-miterlimit:4;stroke-dasharray:none;stroke-opacity:1" />
    <path
       sodipodi:nodetypes="cccccccsc"
       inkscape:connector-curvature="0"
       id="path4587"
       d="m 477.54357,96.860881 c -0.47407,-6.21682 0.24686,-9.155824 5.62312,-12.515994 -5.59823,0.6126 -7.04701,1.99676 -8.85793,4.29293 -0.25247,-1.26233 -0.38568,-4.75443 3.06257,-12.35048 -3.885,2.66703 -6.38142,5.6527 -7.48177,9.24769 -1.52075,-3.53285 -3.31012,-5.27648 -7.1997,-7.38908 1.66316,3.91268 4.02747,8.78259 3.95712,11.482864 -2.64807,-3.590694 -7.15347,-3.435864 -6.91055,-3.165634 4.04631,4.500974 4.92836,7.062824 4.98883,10.397704"
       style="fill:#70f267;fill-opacity:1;stroke:#000000;stroke-width:1.0583334;stroke-linecap:butt;stroke-linejoin:round;stroke-miterlimit:4;stroke-dasharray:none;stroke-opacity:1" />
    <path
       style="fill:#70f267;fill-opacity:1;stroke:#000000;stroke-width:1.0583334;stroke-linecap:butt;stroke-linejoin:round;stroke-miterlimit:4;stroke-dasharray:none;stroke-opacity:1"
       d="m 463.56915,99.859609 c -0.47406,-6.21682 0.24687,-9.15582 5.62313,-12.51599 -5.59823,0.6126 -7.04701,1.99676 -8.85794,4.29293 -0.25246,-1.26233 -0.38567,-4.75443 3.06258,-12.350484 -3.885,2.66703 -6.38142,5.6527 -7.48178,9.247694 -1.52074,-3.532854 -3.31011,-5.276484 -7.1997,-7.389084 1.66317,3.91268 4.02748,8.782594 3.95713,11.482864 -2.64807,-3.59069 -7.15347,-3.43586 -6.91055,-3.16563 4.04631,4.50097 4.92836,7.06282 4.98882,10.3977"
       id="path4589"
       inkscape:connector-curvature="0"
       sodipodi:nodetypes="cccccccsc" />
    <path
       style="fill:#70f267;fill-opacity:1;stroke:#000000;stroke-width:1.0583334;stroke-linecap:butt;stroke-linejoin:round;stroke-miterlimit:4;stroke-dasharray:none;stroke-opacity:1"
       d="m 162.93094,181.86332 c -0.47407,-6.21682 0.24686,-9.15582 5.62312,-12.51599 -5.59823,0.6126 -7.04701,1.99676 -8.85793,4.29293 -0.25247,-1.26233 -0.38568,-4.75443 3.06257,-12.35048 -3.885,2.66703 -6.38142,5.6527 -7.48177,9.24769 -1.52075,-3.53285 -3.31012,-5.27648 -7.1997,-7.38908 1.66316,3.91268 4.02747,8.78259 3.95712,11.48286 -2.64807,-3.59069 -7.15347,-3.43586 -6.91055,-3.16563 4.04631,4.50097 4.92836,7.06282 4.98883,10.3977"
       id="path4593"
       inkscape:connector-curvature="0"
       sodipodi:nodetypes="cccccccsc" />
    <path
       sodipodi:nodetypes="cccccccsc"
       inkscape:connector-curvature="0"
       id="path4559"
       d="m 147.43644,185.36973 c -0.47406,-6.21682 0.24687,-9.15582 5.62313,-12.51599 -5.59823,0.6126 -7.04701,1.99676 -8.85794,4.29293 -0.25246,-1.26233 -0.38567,-4.75443 3.06258,-12.35048 -3.885,2.66703 -6.38142,5.6527 -7.48178,9.24769 -1.52074,-3.53285 -3.31011,-5.27648 -7.1997,-7.38908 1.66317,3.91268 4.02748,8.78259 3.95713,11.48286 -2.64807,-3.59069 -7.15347,-3.43586 -6.91055,-3.16563 4.04631,4.50097 4.92836,7.06282 4.98882,10.3977"
       style="fill:#70f267;fill-opacity:1;stroke:#000000;stroke-width:1.0583334;stroke-linecap:butt;stroke-linejoin:round;stroke-miterlimit:4;stroke-dasharray:none;stroke-opacity:1" />
    <path
       sodipodi:nodetypes="cccccccsc"
       inkscape:connector-curvature="0"
       id="path4595"
       d="m 137.22142,192.09784 c -0.47406,-6.21682 0.24687,-9.15582 5.62313,-12.51599 -5.59823,0.6126 -7.04701,1.99676 -8.85794,4.29293 -0.25246,-1.26233 -0.38567,-4.75443 3.06258,-12.35048 -3.885,2.66703 -6.38142,5.6527 -7.48178,9.24769 -1.52074,-3.53285 -3.31011,-5.27648 -7.1997,-7.38908 1.66317,3.91268 4.02748,8.78259 3.95713,11.48286 -2.64807,-3.59069 -7.15347,-3.43586 -6.91055,-3.16563 4.04631,4.50097 4.92836,7.06282 4.98882,10.3977"
       style="fill:#70f267;fill-opacity:1;stroke:#000000;stroke-width:1.0583334;stroke-linecap:butt;stroke-linejoin:round;stroke-miterlimit:4;stroke-dasharray:none;stroke-opacity:1" />
    <path
       style="fill:#70f267;fill-opacity:1;stroke:#000000;stroke-width:1.0583334;stroke-linecap:butt;stroke-linejoin:round;stroke-miterlimit:4;stroke-dasharray:none;stroke-opacity:1"
       d="m 275.11907,289.84091 c -0.47406,-6.21682 0.24686,-9.15582 5.62312,-12.51599 -5.59823,0.6126 -7.04701,1.99676 -8.85793,4.29293 -0.25247,-1.26233 -0.38568,-4.75443 3.06257,-12.35048 -3.885,2.66703 -6.38142,5.6527 -7.48177,9.24769 -1.52075,-3.53285 -3.31012,-5.27648 -7.1997,-7.38908 1.66316,3.91268 4.02747,8.78259 3.95712,11.48286 -2.64807,-3.59069 -7.15347,-3.43586 -6.91055,-3.16563 4.04631,4.50097 4.92836,7.06282 4.98883,10.3977"
       id="path4597"
       inkscape:connector-curvature="0"
       sodipodi:nodetypes="cccccccsc" />
    <path
       style="fill:#70f267;fill-opacity:1;stroke:#000000;stroke-width:1.0583334;stroke-linecap:butt;stroke-linejoin:round;stroke-miterlimit:4;stroke-dasharray:none;stroke-opacity:1"
       d="m 384.4963,289.61074 c -0.47406,-6.21682 0.24687,-9.15582 5.62313,-12.51599 -5.59823,0.6126 -7.04701,1.99676 -8.85794,4.29293 -0.25246,-1.26233 -0.38567,-4.75443 3.06258,-12.35048 -3.885,2.66703 -6.38141,5.6527 -7.48177,9.24769 -1.52074,-3.53285 -3.31011,-5.27648 -7.1997,-7.38908 1.66317,3.91268 4.02748,8.78259 3.95713,11.48286 -2.64807,-3.59069 -7.15347,-3.43586 -6.91055,-3.16563 4.04631,4.50097 4.92836,7.06282 4.98882,10.3977"
       id="path4601"
       inkscape:connector-curvature="0"
       sodipodi:nodetypes="cccccccsc" />
    <path
       sodipodi:nodetypes="cccccccsc"
       inkscape:connector-curvature="0"
       id="path4603"
       d="m 392.49364,298.36297 c -0.47406,-6.21682 0.24687,-9.15582 5.62313,-12.51599 -5.59823,0.6126 -7.04701,1.99676 -8.85794,4.29293 -0.25246,-1.26233 -0.38567,-4.75443 3.06258,-12.35048 -3.885,2.66703 -6.38141,5.6527 -7.48177,9.24769 -1.52074,-3.53285 -3.31011,-5.27648 -7.1997,-7.38908 1.66317,3.91268 4.02748,8.78259 3.95713,11.48286 -2.64807,-3.59069 -7.15347,-3.43586 -6.91055,-3.16563 4.04631,4.50097 4.92836,7.06282 4.98882,10.3977"
       style="fill:#70f267;fill-opacity:1;stroke:#000000;stroke-width:1.0583334;stroke-linecap:butt;stroke-linejoin:round;stroke-miterlimit:4;stroke-dasharray:none;stroke-opacity:1" />
    <path
       sodipodi:nodetypes="cccccccsc"
       inkscape:connector-curvature="0"
       id="path4599"
       d="m 377.47615,303.48138 c -0.47406,-6.21682 0.24687,-9.15582 5.62313,-12.51599 -5.59823,0.6126 -7.04701,1.99676 -8.85794,4.29293 -0.25246,-1.26233 -0.38567,-4.75443 3.06258,-12.35048 -3.885,2.66703 -6.38141,5.6527 -7.48177,9.24769 -1.52074,-3.53285 -3.31011,-5.27648 -7.1997,-7.38908 1.66317,3.91268 4.02748,8.78259 3.95713,11.48286 -2.64807,-3.59069 -7.15347,-3.43586 -6.91055,-3.16563 4.04631,4.50097 4.92836,7.06282 4.98882,10.3977"
       style="fill:#70f267;fill-opacity:1;stroke:#000000;stroke-width:1.0583334;stroke-linecap:butt;stroke-linejoin:round;stroke-miterlimit:4;stroke-dasharray:none;stroke-opacity:1" />
    <path
       style="fill:#70f267;fill-opacity:1;stroke:#000000;stroke-width:1.0583334;stroke-linecap:butt;stroke-linejoin:round;stroke-miterlimit:4;stroke-dasharray:none;stroke-opacity:1"
       d="m 16.461869,115.02984 c -0.47407,-6.21682 0.24686,-9.15582 5.623119,-12.51599 -5.598229,0.6126 -7.04701,1.99676 -8.857929,4.29293 -0.25247,-1.26233 -0.38568,-4.75443 3.06257,-12.350484 -3.885,2.66703 -6.3814202,5.652704 -7.4817702,9.247694 -1.52075,-3.53285 -3.3101199,-5.276484 -7.1997,-7.389084 1.66316,3.912684 4.0274701,8.782594 3.9571201,11.482864 -2.6480701,-3.59069 -7.1534701,-3.43586 -6.9105501,-3.16563 4.04631,4.50097 4.92836,7.06282 4.98883,10.3977"
       id="path4605"
       inkscape:connector-curvature="0"
       sodipodi:nodetypes="cccccccsc" />
    <path
       sodipodi:nodetypes="cccccccsc"
       inkscape:connector-curvature="0"
       id="path4607"
       d="m 4.1191184,285.01862 c -0.47407,-6.21682 0.24686,-9.15582 5.6231191,-12.51599 -5.5982291,0.6126 -7.0470091,1.99676 -8.85792812,4.29293 -0.25247,-1.26233 -0.38567997,-4.75443 3.06256902,-12.35048 -3.88499899,2.66703 -6.3814189,5.6527 -7.4817689,9.24769 -1.52075,-3.53285 -3.3101193,-5.27648 -7.1996975,-7.38908 1.6631594,3.91268 4.0274679,8.78259 3.9571179,11.48286 -2.6480685,-3.59069 -7.1534679,-3.43586 -6.9105479,-3.16563 4.0463097,4.50097 4.9283591,7.06282 4.9888291,10.3977"
       style="fill:#70f267;fill-opacity:1;stroke:#000000;stroke-width:1.0583334;stroke-linecap:butt;stroke-linejoin:round;stroke-miterlimit:4;stroke-dasharray:none;stroke-opacity:1" />
    <path
       style="fill:#70f267;fill-opacity:1;stroke:#000000;stroke-width:1.0583334;stroke-linecap:butt;stroke-linejoin:round;stroke-miterlimit:4;stroke-dasharray:none;stroke-opacity:1"
       d="m 34.053308,194.68152 c -0.47407,-6.21682 0.24686,-9.15582 5.623119,-12.51599 -5.598229,0.6126 -7.047009,1.99676 -8.857928,4.29293 -0.25247,-1.26233 -0.38568,-4.75443 3.062569,-12.35048 -3.884999,2.66703 -6.381419,5.6527 -7.481769,9.24769 -1.52075,-3.53285 -3.31012,-5.27648 -7.1997,-7.38908 1.66316,3.91268 4.02747,8.78259 3.95712,11.48286 -2.64807,-3.59069 -7.15347,-3.43586 -6.91055,-3.16563 4.04631,4.50097 4.92836,7.06282 4.98883,10.3977"
       id="path4611"
       inkscape:connector-curvature="0"
       sodipodi:nodetypes="cccccccsc" />
    <path
       style="fill:#70f267;fill-opacity:1;stroke:#000000;stroke-width:1.0583334;stroke-linecap:butt;stroke-linejoin:round;stroke-miterlimit:4;stroke-dasharray:none;stroke-opacity:1"
       d="m 23.940642,200.7879 c -0.47406,-6.21682 0.24686,-9.15582 5.62312,-12.51599 -5.59823,0.6126 -7.04701,1.99676 -8.85793,4.29293 -0.25247,-1.26233 -0.38568,-4.75443 3.06257,-12.35048 -3.885,2.66703 -6.38142,5.6527 -7.48177,9.24769 -1.52075,-3.53285 -3.310121,-5.27648 -7.1997025,-7.38908 1.6631605,3.91268 4.0274715,8.78259 3.9571215,11.48286 -2.648072,-3.59069 -7.1534715,-3.43586 -6.9105515,-3.16563 4.0463095,4.50097 4.9283605,7.06282 4.9888305,10.3977"
       id="path4613"
       inkscape:connector-curvature="0"
       sodipodi:nodetypes="cccccccsc" />
    <path
       sodipodi:nodetypes="cccccccsc"
       inkscape:connector-curvature="0"
       id="path4615"
       d="m 177.37095,13.737347 c -0.47406,-6.2168192 0.24686,-9.1558192 5.62312,-12.5159892 -5.59823,0.6126 -7.04701,1.99676 -8.85793,4.29293 -0.25247,-1.26233 -0.38568,-4.75442997 3.06257,-12.3504802 -3.885,2.6670302 -6.38142,5.6527002 -7.48177,9.2476902 -1.52075,-3.53285 -3.31012,-5.27648 -7.1997,-7.3890802 1.66316,3.9126802 4.02747,8.7825902 3.95712,11.4828602 -2.64807,-3.59069 -7.15347,-3.43586 -6.91055,-3.16563 4.04631,4.50097 4.92836,7.0628192 4.98883,10.3976992"
       style="fill:#70f267;fill-opacity:1;stroke:#000000;stroke-width:1.0583334;stroke-linecap:butt;stroke-linejoin:round;stroke-miterlimit:4;stroke-dasharray:none;stroke-opacity:1" />
    <path
       sodipodi:nodetypes="cccccccsc"
       inkscape:connector-curvature="0"
       id="path4617"
       d="m 163.41179,22.559951 c -0.47407,-6.21682 0.24686,-9.155824 5.62312,-12.515994 -5.59823,0.6126 -7.04701,1.99676 -8.85793,4.29293 -0.25247,-1.26233 -0.38568,-4.7544297 3.06257,-12.3504792 -3.885,2.66703 -6.38142,5.6527 -7.48177,9.2476892 -1.52075,-3.5328492 -3.31012,-5.2764792 -7.1997,-7.3890792 1.66316,3.91268 4.02747,8.7825892 3.95712,11.4828632 -2.64807,-3.590694 -7.15347,-3.435864 -6.91055,-3.165634 4.04631,4.500974 4.92836,7.062824 4.98883,10.397704"
       style="fill:#70f267;fill-opacity:1;stroke:#000000;stroke-width:1.0583334;stroke-linecap:butt;stroke-linejoin:round;stroke-miterlimit:4;stroke-dasharray:none;stroke-opacity:1" />
    <path
       style="fill:#70f267;fill-opacity:1;stroke:#000000;stroke-width:1.0583334;stroke-linecap:butt;stroke-linejoin:round;stroke-miterlimit:4;stroke-dasharray:none;stroke-opacity:1"
       d="m 175.89587,28.733681 c -0.47406,-6.21682 0.24687,-9.15582 5.62313,-12.51599 -5.59823,0.6126 -7.04701,1.99676 -8.85794,4.29293 -0.25246,-1.26233 -0.38567,-4.75443 3.06258,-12.3504832 -3.885,2.6670292 -6.38142,5.6526992 -7.48178,9.2476932 -1.52074,-3.532854 -3.31011,-5.276484 -7.1997,-7.389084 1.66317,3.91268 4.02748,8.782594 3.95713,11.482864 -2.64807,-3.59069 -7.15347,-3.43586 -6.91055,-3.16563 4.04631,4.50097 4.92836,7.06282 4.98882,10.3977"
       id="path4619"
       inkscape:connector-curvature="0"
       sodipodi:nodetypes="cccccccsc" />
    <path
       sodipodi:nodetypes="cccccccsc"
       inkscape:connector-curvature="0"
       id="path4621"
       d="m 514.71342,245.72193 c -0.47406,-6.21682 0.24686,-9.15582 5.62312,-12.51599 -5.59823,0.6126 -7.04701,1.99676 -8.85793,4.29293 -0.25247,-1.26233 -0.38568,-4.75443 3.06257,-12.35048 -3.885,2.66703 -6.38142,5.6527 -7.48177,9.24769 -1.52075,-3.53285 -3.31012,-5.27648 -7.1997,-7.38908 1.66316,3.91268 4.02747,8.78259 3.95712,11.48286 -2.64807,-3.59069 -7.15347,-3.43586 -6.91055,-3.16563 4.04631,4.50097 4.92836,7.06282 4.98883,10.3977"
       style="fill:#70f267;fill-opacity:1;stroke:#000000;stroke-width:1.0583334;stroke-linecap:butt;stroke-linejoin:round;stroke-miterlimit:4;stroke-dasharray:none;stroke-opacity:1" />
    <path
       sodipodi:nodetypes="cccccccsc"
       inkscape:connector-curvature="0"
       id="path4623"
       d="m 500.75426,254.54453 c -0.47407,-6.21682 0.24686,-9.15582 5.62312,-12.51599 -5.59823,0.6126 -7.04701,1.99676 -8.85793,4.29293 -0.25247,-1.26233 -0.38568,-4.75443 3.06257,-12.35048 -3.885,2.66703 -6.38142,5.6527 -7.48177,9.24769 -1.52075,-3.53285 -3.31012,-5.27648 -7.1997,-7.38908 1.66316,3.91268 4.02747,8.78259 3.95712,11.48286 -2.64807,-3.59069 -7.15347,-3.43586 -6.91055,-3.16563 4.04631,4.50097 4.92836,7.06282 4.98883,10.3977"
       style="fill:#70f267;fill-opacity:1;stroke:#000000;stroke-width:1.0583334;stroke-linecap:butt;stroke-linejoin:round;stroke-miterlimit:4;stroke-dasharray:none;stroke-opacity:1" />
    <path
       style="fill:#70f267;fill-opacity:1;stroke:#000000;stroke-width:1.0583334;stroke-linecap:butt;stroke-linejoin:round;stroke-miterlimit:4;stroke-dasharray:none;stroke-opacity:1"
       d="m 513.23834,260.71826 c -0.47406,-6.21682 0.24687,-9.15582 5.62313,-12.51599 -5.59823,0.6126 -7.04701,1.99676 -8.85794,4.29293 -0.25246,-1.26233 -0.38567,-4.75443 3.06258,-12.35048 -3.885,2.66703 -6.38142,5.6527 -7.48178,9.24769 -1.52074,-3.53285 -3.31011,-5.27648 -7.1997,-7.38908 1.66317,3.91268 4.02748,8.78259 3.95713,11.48286 -2.64807,-3.59069 -7.15347,-3.43586 -6.91055,-3.16563 4.04631,4.50097 4.92836,7.06282 4.98882,10.3977"
       id="path4625"
       inkscape:connector-curvature="0"
       sodipodi:nodetypes="cccccccsc" />
    <path
       sodipodi:nodetypes="cccccccsc"
       inkscape:connector-curvature="0"
       id="path4627"
       d="m 101.95755,107.89377 c -0.47406,-6.21682 0.24688,-9.155811 5.62318,-12.515963 -5.59828,0.612597 -7.04706,1.996748 -8.857996,4.292906 -0.25246,-1.262321 -0.38567,-4.754403 3.062586,-12.350453 -3.885006,2.66703 -6.381416,5.6527 -7.481776,9.247681 -1.52074,-3.532841 -3.31011,-5.276471 -7.1997,-7.389071 1.66317,3.91268 4.02748,8.782572 3.95713,11.48283 -2.64807,-3.590672 -7.15347,-3.435842 -6.91055,-3.165615 4.04631,4.500955 4.92836,7.062805 4.98882,10.397685"
       style="fill:#70f267;fill-opacity:1;stroke:#000000;stroke-width:1.0583334;stroke-linecap:butt;stroke-linejoin:round;stroke-miterlimit:4;stroke-dasharray:none;stroke-opacity:1" />
    <path
       style="fill:#f2d846;fill-opacity:1;stroke:#000000;stroke-width:1.32291663;stroke-linecap:butt;stroke-linejoin:miter;stroke-miterlimit:4;stroke-dasharray:none;stroke-opacity:1"
       d="M 31.526678,301.31429 C 100.9694,264.1522 117.98603,258.65208 153.69898,225.70061 189.41193,192.74914 202.96161,164.76277 233.8451,140.18549 264.72858,115.60822 308.42549,99.505352 331.82366,73.356981 355.22182,47.208609 375.21955,6.6424375 375.21955,6.6424375 l 89.48293,-0.534539 c 0,0 -18.25572,42.9058275 -27.72467,65.9159955 -9.46894,23.010167 -21.95885,43.306616 -48.11964,68.825836 -26.16079,25.51921 -86.49684,43.90509 -106.50757,70.06261 -20.01074,26.15752 -25.81845,38.17724 -43.84795,54.17647 -18.02951,15.99923 -31.33226,27.18732 -48.61619,36.5386 -68.1987,1.16882 -61.86412,-0.90497 -158.359782,-0.31312 z"
       id="path4631"
       inkscape:connector-curvature="0"
       sodipodi:nodetypes="czzzcczzzzcc" />
  </g>
</svg>
